HIERARCHY
ROOT Hips
{
 OFFSET 0.000000 0.000000 0.000000
 CHANNELS 6 Xposition Yposition Zposition Yrotation Xrotation Zrotation
 JOINT Chest
 {
  OFFSET 0.000000 9.303000 0.001900
  CHANNELS 3 Yrotation Xrotation Zrotation
  JOINT Chest2
  {
   OFFSET 0.000000 9.301100 -0.003900
   CHANNELS 3 Yrotation Xrotation Zrotation
   JOINT Chest3
   {
    OFFSET 0.000000 9.262800 0.000000
    CHANNELS 3 Yrotation Xrotation Zrotation
    JOINT Chest4
    {
     OFFSET 0.000000 9.253300 0.000000
     CHANNELS 3 Yrotation Xrotation Zrotation
     JOINT Neck
     {
      OFFSET 0.000000 14.010300 0.000000
      CHANNELS 3 Yrotation Xrotation Zrotation
      JOINT Head
      {
       OFFSET 0.000000 8.657600 -0.008300
       CHANNELS 3 Yrotation Xrotation Zrotation
       End Site
       {
        OFFSET 0.000000 16.540200 -0.004400
       }
      }
     }
     JOINT RightCollar
     {
      OFFSET -2.834100 9.267700 0.000000
      CHANNELS 3 Yrotation Xrotation Zrotation
      JOINT RightShoulder
      {
       OFFSET -13.135200 0.000000 0.000000
       CHANNELS 3 Yrotation Xrotation Zrotation
       JOINT RightElbow
       {
        OFFSET 0.000000 -28.893500 0.000000
        CHANNELS 3 Yrotation Xrotation Zrotation
        JOINT RightWrist
        {
         OFFSET 0.000000 -23.344000 0.000000
         CHANNELS 3 Yrotation Xrotation Zrotation
         End Site
         {
          OFFSET 0.000000 -17.223000 0.000000
         }
        }
       }
      }
     }
     JOINT LeftCollar
     {
      OFFSET 2.834100 9.267700 0.000000
      CHANNELS 3 Yrotation Xrotation Zrotation
      JOINT LeftShoulder
      {
       OFFSET 13.135200 0.000000 0.000000
       CHANNELS 3 Yrotation Xrotation Zrotation
       JOINT LeftElbow
       {
        OFFSET 0.000000 -28.893500 0.000000
        CHANNELS 3 Yrotation Xrotation Zrotation
        JOINT LeftWrist
        {
         OFFSET 0.000000 -23.344000 0.000000
         CHANNELS 3 Yrotation Xrotation Zrotation
         End Site
         {
          OFFSET 0.000000 -17.223000 0.000000
         }
        }
       }
      }
     }
    }
   }
  }
 }
 JOINT RightHip
 {
  OFFSET -7.547200 -0.009500 -0.001000
  CHANNELS 3 Yrotation Xrotation Zrotation
  JOINT RightKnee
  {
   OFFSET 0.000000 -39.762800 0.000900
   CHANNELS 3 Yrotation Xrotation Zrotation
   JOINT RightAnkle
   {
    OFFSET 0.000000 -38.588200 0.001600
    CHANNELS 3 Yrotation Xrotation Zrotation
    JOINT RightToe
    {
     OFFSET 0.000000 -4.693300 10.419700
     CHANNELS 3 Yrotation Xrotation Zrotation
     End Site
     {
      OFFSET 0.000000 -1.379900 5.669300
     }
    }
   }
  }
 }
 JOINT LeftHip
 {
  OFFSET 7.547200 -0.009500 -0.001000
  CHANNELS 3 Yrotation Xrotation Zrotation
  JOINT LeftKnee
  {
   OFFSET 0.000000 -39.762800 0.000900
   CHANNELS 3 Yrotation Xrotation Zrotation
   JOINT LeftAnkle
   {
    OFFSET 0.000000 -38.588200 0.001600
    CHANNELS 3 Yrotation Xrotation Zrotation
    JOINT LeftToe
    {
     OFFSET 0.000000 -4.693300 10.419700
     CHANNELS 3 Yrotation Xrotation Zrotation
     End Site
     {
      OFFSET 0.000000 -1.379900 5.669300
     }
    }
   }
  }
 }
}
MOTION
Frames: 5
Frame Time: 0.008333
0.000000 82.880600 0.000000 0.000000 -5.767877 0.000000 0.000000 11.653817 0.000000 0.000000 -5.885947 0.000000 0.000000 -0.000000 0.000000 0.000000 -0.000000 0.000000 0.000000 12.528835 0.000000 0.000000 0.711642 0.000000 0.000000 -0.000000 0.000000 0.000000 0.000000 -90.000000 0.000000 -2.309062 0.000000 0.000000 2.309062 0.000000 0.000000 -0.000000 0.000000 0.000000 -0.000000 90.000000 0.000000 -2.309062 0.000000 0.000000 2.309062 0.000000 0.000000 8.520406 0.000000 0.000000 1.905762 0.000000 -0.000000 -4.658285 0.000000 0.000000 -0.000000 0.000000 0.000000 8.520406 0.000000 0.000000 1.905762 0.000000 -0.000000 -4.658285 0.000000 0.000000 -0.000000 0.000000
29.219956 45.956760 -11.184564 163.674498 -14.163986 -0.257426 3.652614 8.994628 1.286749 0.209965 0.529789 0.062035 0.360576 0.912842 0.111470 3.399753 8.352761 1.248684 -1.942752 22.535640 -1.158041 -1.823781 -1.583551 -0.800937 3.136537 4.676300 -4.399370 -2.535608 -14.021120 -4.396267 -69.290160 -66.240158 83.724487 -14.011316 -2.257239 -30.259386 -13.723776 1.181991 -6.670111 18.551130 -17.277207 11.755027 53.874249 -53.051223 -75.219029 7.894013 3.041216 13.037417 -18.434410 -72.829936 15.508586 -114.763612 81.354050 -115.717013 -12.889110 -11.147816 -1.217151 0.004894 -0.048601 -0.004833 -0.795136 -73.047163 21.712308 115.810223 77.686108 113.773500 -11.706947 -12.098419 3.051809 0.002639 0.054159 -0.007154
29.222687 45.957467 -11.184037 163.671518 -14.159402 -0.266153 3.659352 8.991249 1.295590 0.208505 0.530335 0.060410 0.360704 0.912598 0.111701 3.401126 8.352907 1.249265 -1.948114 22.533695 -1.153891 -1.830438 -1.585211 -0.797104 3.135411 4.673157 -4.403266 -2.538322 -14.020425 -4.392431 -69.294013 -66.240581 83.730684 -14.010746 -2.259162 -30.263829 -13.727887 1.180040 -6.669415 18.555842 -17.277986 11.755739 53.873237 -53.054023 -75.219279 7.897132 3.039163 13.045638 -18.458829 -72.829540 15.530728 -114.773678 81.361382 -115.719933 -12.856936 -11.146943 -1.226040 0.010960 -0.049725 -0.004599 -0.794500 -73.052293 21.725551 115.797144 77.689599 113.768832 -11.718542 -12.102934 3.051331 0.001223 0.058782 -0.004470
29.226623 45.958104 -11.182371 163.661912 -14.149835 -0.282635 3.672256 8.984236 1.309910 0.207909 0.527473 0.063285 0.360905 0.912509 0.112005 3.400737 8.350875 1.248929 -1.954156 22.532477 -1.150140 -1.832431 -1.586054 -0.793962 3.140375 4.674964 -4.406031 -2.538421 -14.022476 -4.401457 -69.303474 -66.236461 83.740914 -14.016128 -2.265873 -30.272206 -13.730147 1.179746 -6.672052 18.560319 -17.278202 11.760289 53.875215 -53.055559 -75.228035 7.899454 3.036892 13.054215 -18.511100 -72.829104 15.585284 -114.764287 81.369302 -115.709046 -12.749699 -11.140178 -1.245235 0.023325 -0.051708 -0.000997 -0.813135 -73.062770 21.764214 115.786413 77.692753 113.766327 -11.711448 -12.110332 3.054191 0.003828 0.064954 -0.005425
29.227633 45.959061 -11.182797 163.660297 -14.147998 -0.281156 3.673666 8.983302 1.308030 0.207004 0.525870 0.063617 0.361355 0.913316 0.111734 3.399664 8.347613 1.249286 -1.955954 22.533602 -1.148921 -1.841455 -1.590337 -0.787519 3.145811 4.678640 -4.408245 -2.533792 -14.026790 -4.411144 -69.309234 -66.233703 83.739644 -14.019341 -2.272860 -30.276719 -13.729729 1.181534 -6.674623 18.567866 -17.279692 11.763505 53.860658 -53.056496 -75.234686 7.902341 3.018341 13.077025 -18.509488 -72.827280 15.585448 -114.714113 81.370166 -115.657801 -12.762152 -11.139687 -1.245331 0.021656 -0.049503 0.000298 -0.772137 -73.065184 21.728369 115.767536 77.692825 113.754356 -11.706725 -12.113378 3.058958 0.003837 0.066464 -0.006536
